<svg xmlns="http://www.w3.org/2000/svg" width="47.489" height="68" viewBox="0 0 47.489 68">
    <path class="a" d="M43.315,13.726a.618.618,0,0,0,.247-.769A50.813,50.813,0,0,0,36.243.6,1.607,1.607,0,0,0,33.4,1.614c0,15.628-5.754,25.846-15.532,33.069a.22.22,0,0,0-.069.151,86.34,86.34,0,0,0,3.845,19.789.168.168,0,1,0,.33-.069A44.522,44.522,0,0,1,43.315,13.726Zm3.09,10.986h0A38.452,38.452,0,0,0,24.432,56.807h-.426A42.7,42.7,0,0,1,43.782,15.5a.632.632,0,0,1,.92.33,50.634,50.634,0,0,1,2.074,8.24.632.632,0,0,1-.357.659ZM15.808,36.1h0a.179.179,0,0,1,.275.137,88.427,88.427,0,0,0,3.639,18.389.165.165,0,0,1-.261.192,56,56,0,0,0-17.674-7.91,1.826,1.826,0,0,1-.316-3.626A110.731,110.731,0,0,0,15.808,36.1ZM46.254,38.02h0a.632.632,0,0,1,.824.659A51.348,51.348,0,0,1,45.9,45.065a.645.645,0,0,1-.481.453,23.62,23.62,0,0,0-3.117.906,23.017,23.017,0,0,0-13.733,14.1l-.659-.11A28.62,28.62,0,0,1,46.24,38.034ZM44.18,47.633h0a.632.632,0,0,1,.755.8A51.087,51.087,0,0,1,33.647,67.5a1.593,1.593,0,0,1-2.568-.316,31.774,31.774,0,0,0-1.8-2.829h0a21.355,21.355,0,0,1,13.609-16.3c.426-.151.851-.3,1.291-.426Zm2.994-20.3h0a50.95,50.95,0,0,1,.275,5.232c0,.961,0,1.923-.082,2.87a.632.632,0,0,1-.439.563c-.426.137-.865.275-1.291.439A30.391,30.391,0,0,0,26.41,58.592h-.357A36.626,36.626,0,0,1,46.282,26.814a.618.618,0,0,1,.893.481Z" transform="translate(0.04 -0.018)"/>
</svg>